<svg xmlns="http://www.w3.org/2000/svg" width="63" height="19" viewBox="0 0 63 19" fill="none">
  <path d="M53.9824 9.57365C54.7119 9.32781 55.434 9.96386 55.2821 10.7185L53.8874 17.6507C53.7355 18.4053 52.8236 18.7126 52.246 18.2038L46.94 13.5298C46.3623 13.021 46.5521 12.0776 47.2816 11.8318L53.9824 9.57365Z" fill="#9C46FF"/>
  <path d="M8.07422 9.57365C7.34473 9.32781 6.62268 9.96386 6.77452 10.7185L8.16929 17.6507C8.32113 18.4053 9.23299 18.7126 9.81064 18.2038L15.1167 13.5298C15.6943 13.021 15.5045 12.0776 14.775 11.8318L8.07422 9.57365Z" fill="#9C46FF"/>
  <path d="M61.6928 8.91155C62.2865 9.40156 62.1271 10.3505 61.4059 10.6197L54.7811 13.092C54.0599 13.3612 53.3178 12.7487 53.4453 11.9895L54.6166 5.01612C54.7441 4.25695 55.6456 3.92051 56.2393 4.41052L61.6928 8.91155Z" fill="#9C46FF"/>
  <path d="M0.363849 8.91155C-0.229852 9.40156 -0.0704624 10.3505 0.650751 10.6197L7.2755 13.092C7.99671 13.3612 8.73884 12.7487 8.61132 11.9895L7.44006 5.01612C7.31255 4.25695 6.41103 3.92051 5.81733 4.41052L0.363849 8.91155Z" fill="#9C46FF"/>
  <mask id="path-5-outside-1_15828_37538" maskUnits="userSpaceOnUse" x="2.02051" y="0" width="58" height="16" fill="black">
    <rect fill="white" x="2.02051" width="58" height="16"/>
    <path d="M2.02051 1H60.0205V15H2.02051V1Z"/>
  </mask>
  <path d="M2.02051 1H60.0205V15H2.02051V1Z" fill="#C700E3"/>
  <path d="M2.02051 1V2H60.0205V1V0H2.02051V1ZM60.0205 15V14H2.02051V15V16H60.0205V15Z" fill="#F5C84C" mask="url(#path-5-outside-1_15828_37538)"/>
</svg>

