<svg width="152" height="80" viewBox="0 0 152 80" fill="none" xmlns="http://www.w3.org/2000/svg">
<path d="M0 12C0 5.37258 5.37258 0 12 0H84.0113C89.1545 0 94.0999 1.98134 97.8204 5.53243L110.795 17.9167L129.108 30H140C146.627 30 152 35.3726 152 42V68C152 74.6274 146.627 80 140 80H12C5.37258 80 0 74.6274 0 68V12Z" fill="#3C3C3C"/>
<mask id="mask0_13790_36693" style="mask-type:alpha" maskUnits="userSpaceOnUse" x="0" y="0" width="152" height="80">
<path d="M0 12C0 5.37258 5.37258 0 12 0H84.0113C89.1545 0 94.0999 1.98134 97.8204 5.53243L110.795 17.9167L129.108 30H140C146.627 30 152 35.3726 152 42V68C152 74.6274 146.627 80 140 80H12C5.37258 80 0 74.6274 0 68V12Z" fill="#3C3C3C"/>
</mask>
<g mask="url(#mask0_13790_36693)">
<path d="M86.5 94.6835L175.119 -1.26584L-43.1191 -1.26584L86.5 94.6835Z" fill="url(#paint0_linear_13790_36693)"/>
</g>
<defs>
<linearGradient id="paint0_linear_13790_36693" x1="66" y1="86.0759" x2="66" y2="-9.11394" gradientUnits="userSpaceOnUse">
<stop stop-color="#7E7E7E" stop-opacity="0.2"/>
<stop offset="1" stop-color="#C6C6C6" stop-opacity="0.4"/>
</linearGradient>
</defs>
</svg>
