<svg width="24" height="31" viewBox="0 0 24 31" fill="none" xmlns="http://www.w3.org/2000/svg">
<path d="M8.78679 30.4C8.78679 30.4 -4.36597 27.4346 1.51253 12.7164C1.51253 12.7164 2.84716 14.3518 2.66378 15.1389C2.66378 15.1389 3.70975 11.4237 5.9681 9.20482C7.90722 7.29803 9.87691 1.93732 8.06004 0C8.06004 0 17.0595 1.93732 18.0613 11.6273C18.0613 11.6273 19.2126 8.53982 21.5762 8.23446C21.5762 8.23446 20.8494 9.93089 21.5762 12.4755C21.5762 12.4755 29.0304 25.555 16.1833 29.9759C16.1833 29.9759 20.0344 25.4939 11.867 17.8023C11.867 17.8023 9.94143 21.9212 8.79019 23.3734C8.78679 23.3768 5.57416 27.0682 8.78679 30.4Z" fill="currentColor"/>
</svg>
