<svg width="24" height="24" viewBox="0 0 24 24" fill="none" xmlns="http://www.w3.org/2000/svg">
<path d="M10.2849 2.64037C11.3157 1.78808 12.9649 1.785 14.008 2.64037L21.1465 8.52487C21.7819 9.05256 22.1465 9.81562 22.1465 10.6171V19.2447C22.1434 20.7677 20.8619 22 19.2834 22H5.00802C3.4311 22 2.14648 20.7631 2.14648 19.2447V10.6187C2.14648 9.81254 2.51264 9.0464 3.14648 8.52487L10.2849 2.64037ZM15.9926 15.8463H8.30033C7.89231 15.8463 7.50099 16.0084 7.21247 16.2969C6.92396 16.5854 6.76187 16.9767 6.76187 17.3847C6.76187 17.7927 6.92396 18.184 7.21247 18.4725C7.50099 18.761 7.89231 18.9231 8.30033 18.9231H15.9926C16.4007 18.9231 16.792 18.761 17.0805 18.4725C17.369 18.184 17.5311 17.7927 17.5311 17.3847C17.5311 16.9767 17.369 16.5854 17.0805 16.2969C16.792 16.0084 16.4007 15.8463 15.9926 15.8463Z" fill="#24B978"/>
</svg>
