<svg width="20" height="20" viewBox="0 0 20 20" fill="none" xmlns="http://www.w3.org/2000/svg">
<path d="M17.1667 6.67932H10.6222V11.8776L9.45555 11L8.3 11.8776V6.67932H1.83333C1.1 6.67932 0.5 7.28692 0.5 8.02954V17.6498C0.5 18.3924 1.1 19 1.83333 19H17.1667C17.9 19 18.5 18.3924 18.5 17.6498V8.02954C18.5 7.28692 17.9 6.67932 17.1667 6.67932ZM8.28889 3H2.51111C2.25556 3 2.02222 3.12377 1.87778 3.33755L0.844444 4.82278C0.555556 5.19409 0.811111 5.73418 1.27778 5.73418H8.28889V3ZM17.9111 4.82278L16.9333 3.37131C16.7778 3.14627 16.5222 3 16.2444 3H10.6222V5.72293H17.4778C17.9444 5.73418 18.2 5.19409 17.9111 4.82278Z" fill="url(#paint0_linear_14519_37645)"/>
<defs>
<linearGradient id="paint0_linear_14519_37645" x1="9.5" y1="3" x2="9.5" y2="19" gradientUnits="userSpaceOnUse">
<stop stop-color="#7088F2"/>
<stop offset="1" stop-color="#879EFB"/>
</linearGradient>
</defs>
</svg>
