<svg width="20" height="20" viewBox="0 0 20 20" fill="none" xmlns="http://www.w3.org/2000/svg">
<path d="M15.7101 2C15.9231 2.00004 16.1325 2.056 16.3172 2.1623C16.502 2.26859 16.6557 2.42152 16.7631 2.60584L18.8337 6.16209C18.9579 6.37514 19.0147 6.62087 18.9968 6.86691C18.9788 7.11295 18.8869 7.34778 18.7331 7.54049L10.9286 17.3121C10.7572 17.5267 10.5398 17.7 10.2926 17.8191C10.0453 17.9382 9.77439 18 9.5 18C9.22561 18 8.95474 17.9382 8.70745 17.8191C8.46015 17.7 8.24277 17.5267 8.07141 17.3121L0.266905 7.54049C0.113124 7.34778 0.0212043 7.11295 0.0032464 6.86691C-0.0147115 6.62087 0.042134 6.37514 0.1663 6.16209L2.23693 2.60584C2.34432 2.42152 2.49804 2.26859 2.68279 2.1623C2.86754 2.056 3.07687 2.00004 3.28993 2H15.7101ZM11.8042 9.40686L9.74816 12.2907C9.71996 12.3303 9.68273 12.3626 9.63956 12.3848C9.5964 12.4071 9.54855 12.4187 9.5 12.4187C9.45145 12.4187 9.4036 12.4071 9.36044 12.3848C9.31727 12.3626 9.28004 12.3303 9.25184 12.2907L7.19584 9.40686C7.12602 9.30894 7.03763 9.22574 6.93571 9.16204C6.83379 9.09833 6.72034 9.05535 6.60183 9.03556C6.48333 9.01577 6.3621 9.01955 6.24505 9.04668C6.12801 9.07382 6.01745 9.12378 5.91968 9.19372C5.82192 9.26366 5.73886 9.35219 5.67526 9.45428C5.61165 9.55637 5.56874 9.67 5.54899 9.7887C5.52922 9.9074 5.533 10.0288 5.56009 10.1461C5.58719 10.2633 5.63707 10.374 5.70689 10.472L7.7635 13.3552C7.96094 13.632 8.2215 13.8577 8.52353 14.0134C8.82556 14.169 9.16033 14.2503 9.5 14.2503C9.83967 14.2503 10.1744 14.169 10.4765 14.0134C10.7785 13.8577 11.0391 13.632 11.2365 13.3552L13.2931 10.472C13.3629 10.374 13.4128 10.2633 13.4399 10.1461C13.467 10.0288 13.4708 9.9074 13.451 9.7887C13.4313 9.67 13.3883 9.55637 13.3247 9.45428C13.2611 9.35219 13.1781 9.26366 13.0803 9.19372C12.9826 9.12378 12.872 9.07382 12.7549 9.04668C12.6379 9.01955 12.5167 9.01577 12.3982 9.03556C12.2797 9.05535 12.1662 9.09833 12.0643 9.16204C11.9624 9.22574 11.874 9.30894 11.8042 9.40686Z" fill="url(#paint0_linear_14519_37642)"/>
<defs>
<linearGradient id="paint0_linear_14519_37642" x1="9.5" y1="2" x2="9.5" y2="18" gradientUnits="userSpaceOnUse">
<stop stop-color="#C85CE4"/>
<stop offset="1" stop-color="#F78CFC"/>
</linearGradient>
</defs>
</svg>
