<svg width="297" height="39" viewBox="0 0 297 39" fill="none" xmlns="http://www.w3.org/2000/svg">
<mask id="path-1-inside-1_3023_4409" fill="white">
<path d="M49 2H110L111.7 0H291.858L295 3.1416V18L297 19V34.0352L292.035 39H274.7L273 37H212L211 39H5.03613L0.0351562 34L0 34.0352V3.1416L0.0712891 3.21289L3.21289 0.0712891L3.1416 0H48L49 2Z"/>
</mask>
<path d="M49 2H110L111.7 0H291.858L295 3.1416V18L297 19V34.0352L292.035 39H274.7L273 37H212L211 39H5.03613L0.0351562 34L0 34.0352V3.1416L0.0712891 3.21289L3.21289 0.0712891L3.1416 0H48L49 2Z" fill="url(#paint0_linear_3023_4409)"/>
<path d="M49 2L48.1056 2.44721L48.382 3H49V2ZM110 2V3H110.462L110.762 2.64769L110 2ZM111.7 0V-1H111.238L110.938 -0.647692L111.7 0ZM291.858 0L292.565 -0.707107L292.273 -1H291.858V0ZM295 3.1416H296V2.72739L295.707 2.43449L295 3.1416ZM295 18H294V18.618L294.553 18.8944L295 18ZM297 19H298V18.382L297.447 18.1056L297 19ZM297 34.0352L297.707 34.7423L298 34.4494V34.0352H297ZM292.035 39V40H292.449L292.742 39.7071L292.035 39ZM274.7 39L273.938 39.6477L274.238 40H274.7V39ZM273 37L273.762 36.3523L273.462 36H273V37ZM212 37V36H211.382L211.106 36.5528L212 37ZM211 39V40H211.618L211.894 39.4472L211 39ZM5.03613 39L4.32909 39.7072L4.62198 40H5.03613V39ZM0.0351562 34L0.742194 33.2928L0.0350872 32.5859L-0.671951 33.2929L0.0351562 34ZM0 34.0352H-1V36.4494L0.707107 34.7423L0 34.0352ZM0 3.1416L0.707107 2.43449L-1 0.727388V3.1416H0ZM0.0712891 3.21289L-0.635818 3.92L0.0712891 4.6271L0.778396 3.92L0.0712891 3.21289ZM3.21289 0.0712891L3.92 0.778396L4.6271 0.0712891L3.92 -0.635818L3.21289 0.0712891ZM3.1416 0V-1H0.727388L2.43449 0.707107L3.1416 0ZM48 0L48.8944 -0.447214L48.618 -1H48V0ZM49 2V3H110V2V1H49V2ZM110 2L110.762 2.64769L112.462 0.647692L111.7 0L110.938 -0.647692L109.238 1.35231L110 2ZM111.7 0V1H291.858V0V-1H111.7V0ZM291.858 0L291.151 0.707107L294.293 3.84871L295 3.1416L295.707 2.43449L292.565 -0.707107L291.858 0ZM295 3.1416H294V18H295H296V3.1416H295ZM295 18L294.553 18.8944L296.553 19.8944L297 19L297.447 18.1056L295.447 17.1056L295 18ZM297 19H296V34.0352H297H298V19H297ZM297 34.0352L296.293 33.328L291.328 38.2929L292.035 39L292.742 39.7071L297.707 34.7423L297 34.0352ZM292.035 39V38H274.7V39V40H292.035V39ZM274.7 39L275.462 38.3523L273.762 36.3523L273 37L272.238 37.6477L273.938 39.6477L274.7 39ZM273 37V36H212V37V38H273V37ZM212 37L211.106 36.5528L210.106 38.5528L211 39L211.894 39.4472L212.894 37.4472L212 37ZM211 39V38H5.03613V39V40H211V39ZM5.03613 39L5.74317 38.2928L0.742194 33.2928L0.0351562 34L-0.671881 34.7072L4.32909 39.7072L5.03613 39ZM0.0351562 34L-0.671951 33.2929L-0.707107 33.328L0 34.0352L0.707107 34.7423L0.742263 34.7071L0.0351562 34ZM0 34.0352H1V3.1416H0H-1V34.0352H0ZM0 3.1416L-0.707107 3.84871L-0.635818 3.92L0.0712891 3.21289L0.778396 2.50578L0.707107 2.43449L0 3.1416ZM0.0712891 3.21289L0.778396 3.92L3.92 0.778396L3.21289 0.0712891L2.50578 -0.635818L-0.635818 2.50578L0.0712891 3.21289ZM3.21289 0.0712891L3.92 -0.635818L3.84871 -0.707107L3.1416 0L2.43449 0.707107L2.50578 0.778396L3.21289 0.0712891ZM3.1416 0V1H48V0V-1H3.1416V0ZM48 0L47.1056 0.447214L48.1056 2.44721L49 2L49.8944 1.55279L48.8944 -0.447214L48 0Z" fill="url(#paint1_linear_3023_4409)" mask="url(#path-1-inside-1_3023_4409)"/>
<rect x="14" y="33" width="11" height="3" fill="#4042FF"/>
<rect x="30" y="33" width="11" height="3" fill="#4042FF"/>
<rect x="46" y="33" width="11" height="3" fill="#4042FF"/>
<rect x="62" y="33" width="11" height="3" fill="#4042FF"/>
<rect x="257" y="36.5" width="19" height="2" rx="1" fill="white" stroke="#00FBF9"/>
<defs>
<linearGradient id="paint0_linear_3023_4409" x1="297" y1="19.5" x2="0" y2="19.5" gradientUnits="userSpaceOnUse">
<stop stop-color="#5052FF"/>
<stop offset="1" stop-color="#2728AA"/>
</linearGradient>
<linearGradient id="paint1_linear_3023_4409" x1="148.5" y1="0" x2="148.5" y2="39" gradientUnits="userSpaceOnUse">
<stop stop-color="#8254E2" stop-opacity="0"/>
<stop offset="0.5" stop-color="#6C6DFF"/>
<stop offset="1" stop-color="#8254E2" stop-opacity="0"/>
</linearGradient>
</defs>
</svg>
