<svg width="22" height="20" viewBox="0 0 22 20" fill="none" xmlns="http://www.w3.org/2000/svg">
<path d="M3.36914 13C4.06492 14.0135 4.98764 14.8722 6.06152 15.501H3.9209C3.69401 15.501 3.5127 15.6784 3.5127 15.9004V16.3066C3.5127 16.5286 3.69401 16.7061 3.9209 16.7061H16.8154C17.0423 16.7061 17.2246 16.5286 17.2246 16.3066V15.9004C17.2246 15.6784 17.0423 15.501 16.8154 15.501H14.6758C15.7497 14.8721 16.6724 14.0135 17.3682 13H18.1846C18.8426 13 19.3721 13.518 19.3721 14.1543V17.8457C19.3721 18.4819 18.8427 18.9999 18.1924 19H2.55176C1.9014 18.9999 1.37207 18.4819 1.37207 17.8457V14.1543C1.37207 13.5181 1.9014 13.0001 2.55176 13H3.36914ZM10.5 1C14.6463 1 18 4.36128 18 8.5C18 12.6387 14.6387 16 10.5 16C6.36128 16 3 12.6387 3 8.5C3 4.36128 6.36128 1 10.5 1ZM10.3779 3.36328C9.95115 3.36335 9.60059 3.70621 9.60059 4.14062V4.3457C8.89174 4.46765 8.34301 4.75031 7.96191 5.19238C7.60378 5.61156 7.4209 6.13759 7.4209 6.75488C7.42096 7.53966 7.67238 8.11856 8.19043 8.48438C8.45719 8.67492 8.92989 8.85809 9.60059 9.04102L9.89746 9.10938L10.7363 9.30762C11.0031 9.37621 11.2319 9.43707 11.4072 9.49805C11.5596 9.55139 11.674 9.59783 11.7578 9.64355C12.0168 9.78837 12.1465 10.0093 12.1465 10.2988C12.1465 10.657 11.9556 10.9843 11.6279 11.1367C11.5595 11.1671 11.4911 11.1979 11.415 11.2207C11.1711 11.2969 10.8731 11.335 10.5225 11.335C10.1569 11.3349 9.85216 11.2824 9.6084 11.1758C9.41803 11.0996 9.27325 10.9925 9.15137 10.8555C9.06753 10.7564 8.99886 10.6415 8.95312 10.5195C8.84638 10.2224 8.54876 10.0401 8.23633 10.04H8.22852C7.68746 10.0401 7.29879 10.5732 7.48926 11.0762C7.58829 11.3352 7.72542 11.5638 7.9082 11.7695C8.29692 12.2192 8.86145 12.5169 9.6084 12.6465V12.9512C9.6084 13.378 9.95129 13.7285 10.3857 13.7285H10.6299C11.0566 13.7283 11.4072 13.3855 11.4072 12.9512V12.6689C12.0092 12.5698 12.5123 12.3417 12.9238 11.9912C13.442 11.5416 13.7013 10.9163 13.709 10.1162C13.709 9.45329 13.5031 8.9424 13.0918 8.5918C12.7869 8.33266 12.314 8.11904 11.6738 7.95898L11.415 7.89062L9.77637 7.4707C9.72319 7.45551 9.66189 7.44097 9.61621 7.42578C9.44853 7.38005 9.31822 7.31879 9.23438 7.25781C9.05159 7.12065 8.95317 6.90703 8.95312 6.63281C8.95312 6.29748 9.09733 6.0378 9.39453 5.87012C9.45551 5.83201 9.53218 5.80197 9.6084 5.77148C9.80653 5.70292 10.0351 5.66505 10.3018 5.66504C10.7743 5.66504 11.1405 5.75653 11.4072 5.93945C11.4833 5.99275 11.5592 6.05378 11.6201 6.12988C11.681 6.20604 11.7268 6.28969 11.7725 6.38867C11.8944 6.67828 12.1768 6.8613 12.4893 6.86133C13.0608 6.86133 13.4493 6.25183 13.1904 5.74121C13.0913 5.55066 12.9698 5.3669 12.8174 5.19922C12.4592 4.78773 11.9862 4.51414 11.3994 4.37695V4.14062C11.3994 3.71383 11.0565 3.36335 10.6221 3.36328H10.3779Z" fill="url(#paint0_linear_14520_37648)"/>
<defs>
<linearGradient id="paint0_linear_14520_37648" x1="10.3721" y1="1" x2="10.3721" y2="19" gradientUnits="userSpaceOnUse">
<stop stop-color="#0DA86C"/>
<stop offset="1" stop-color="#34CB8C"/>
</linearGradient>
</defs>
</svg>
