<svg width="25" height="25" viewBox="0 0 25 25" fill="none" xmlns="http://www.w3.org/2000/svg">
<path d="M4.34912 24.139C1.94629 24.139 0 22.1316 0 19.6526V4.48648C0 2.01003 1.94634 0 4.34912 0H7.76702C8.44645 0.000113281 9.06777 0.247746 9.06777 1.022C9.06777 1.79624 8.49032 1.97698 7.76585 1.97698H3.85054C2.83311 2.27559 2.18361 2.94441 1.89406 3.99489V20.1444C2.18361 21.1947 2.83311 21.8634 3.85054 22.1633H19.5061C20.5247 21.8634 21.1731 21.1947 21.4626 20.1444V15.4318C21.4626 14.6904 21.701 14.093 22.4608 14.093C23.2203 14.093 23.3568 14.6904 23.3568 15.4354V19.891C23.3568 22.37 21.4105 24.139 19.0076 24.139H4.34912ZM18.161 11.7063C17.9082 11.7063 17.6984 11.6556 17.5436 11.7063C17.0415 11.3116 16.7491 10.8159 16.9252 10.4319V9.15768C12.4122 8.83959 7.38772 13.2965 6.20912 17.4406C5.9501 16.5309 5.80708 15.5709 5.80708 14.5741C5.80708 9.03101 11.4609 3.10408 16.9252 2.78573V1.5116C16.7491 1.12754 17.0415 0.631968 17.5436 0.237409C17.6982 0.287961 17.9082 0.237409 18.1609 0.237409C18.4072 0.237409 18.6964 0.335228 18.7791 0.237409L24.4083 4.82558C24.7523 5.0955 24.9553 5.52127 24.9553 5.97176C24.9553 6.42234 24.7523 6.84808 24.4083 7.118L18.779 11.7063C18.6964 11.6083 18.4072 11.7063 18.161 11.7063Z" fill="white"/>
</svg>
