<svg width="24" height="25" viewBox="0 0 24 25" fill="none" xmlns="http://www.w3.org/2000/svg">
<g id="Base/password">
<path id="Vector" d="M14.0741 4.5166C13.1387 4.51728 12.2168 4.7392 11.3836 5.16423C10.5504 5.58926 9.82956 6.20535 9.27994 6.96218C8.73033 7.71901 8.36753 8.59511 8.22118 9.51893C8.07482 10.4428 8.14907 11.3881 8.43785 12.2777L4.17352 16.542C4.06241 16.6531 3.99999 16.8039 3.99998 16.961V19.924C3.99999 20.0812 4.06243 20.2319 4.17356 20.343C4.28469 20.4542 4.43541 20.5166 4.59258 20.5166H7.55554C7.7127 20.5166 7.86343 20.4542 7.97456 20.343C8.08569 20.2319 8.14812 20.0812 8.14813 19.924V18.7388H9.33332C9.49048 18.7388 9.6412 18.6764 9.75234 18.5652C9.86347 18.4541 9.9259 18.3034 9.92591 18.1462V16.961H11.1111C11.2683 16.961 11.419 16.8986 11.5301 16.7875L12.2388 16.0787C13.0536 16.344 13.9161 16.4294 14.767 16.3291C15.618 16.2288 16.437 15.9452 17.1678 15.4978C17.8985 15.0505 18.5236 14.45 18.9999 13.7378C19.4762 13.0255 19.7924 12.2185 19.9267 11.3723C20.061 10.5261 20.0103 9.66079 19.7779 8.83608C19.5456 8.01137 19.1372 7.24685 18.5809 6.5952C18.0246 5.94355 17.3336 5.42027 16.5555 5.06142C15.7775 4.70258 14.9309 4.5167 14.0741 4.5166ZM15.5554 10.1462C15.321 10.1462 15.0918 10.0767 14.8969 9.94649C14.702 9.81626 14.5501 9.63116 14.4604 9.4146C14.3707 9.19803 14.3472 8.95973 14.3929 8.72983C14.4387 8.49992 14.5516 8.28874 14.7173 8.12299C14.8831 7.95724 15.0942 7.84436 15.3241 7.79863C15.554 7.7529 15.7923 7.77637 16.0089 7.86608C16.2255 7.95578 16.4106 8.10769 16.5408 8.30259C16.671 8.4975 16.7405 8.72664 16.7405 8.96105C16.7405 9.27538 16.6157 9.57683 16.3934 9.79909C16.1711 10.0214 15.8697 10.1462 15.5554 10.1462Z" fill="currentColor" />
</g>
</svg>
