<svg width="200" height="200" viewBox="0 0 200 200" fill="none" xmlns="http://www.w3.org/2000/svg">
<path d="M150.73 96.9441L115.927 62.2658C114.233 60.5781 111.487 60.5781 109.793 62.2658C108.099 63.9536 108.099 66.6899 109.793 68.3777L137.348 95.8341H52.1808C49.8718 95.8341 48 97.6993 48 100C48 102.301 49.8719 104.166 52.1808 104.166H137.348L109.793 131.622C108.099 133.31 108.099 136.047 109.793 137.734C110.64 138.578 111.75 139 112.86 139C113.97 139 115.08 138.578 115.927 137.734L150.73 103.056C151.132 102.655 151.452 102.178 151.67 101.654C151.888 101.129 152 100.568 152 100C152 99.4325 151.888 98.8705 151.67 98.3462C151.452 97.8218 151.132 97.3454 150.73 96.9441Z" fill="#0088FF"/>
</svg>
