<svg width="17" height="17" viewBox="0 0 17 17" fill="none" xmlns="http://www.w3.org/2000/svg">
<path d="M1.69413 0.0136964H15.1604C15.9393 -0.0841034 16.875 0.344848 16.9688 1.20446C17.0284 2.52218 16.9824 3.84505 16.9926 5.1645C17.042 5.90056 16.4063 6.60062 15.6734 6.61262C15.2439 6.63493 14.8144 6.62462 14.3866 6.62635C14.3849 5.90743 14.3849 5.18852 14.3849 4.46961C14.7974 4.51078 15.2644 4.29116 15.1979 3.80559C15.1383 3.29085 15.4229 2.51876 14.8587 2.22192C10.7444 2.16702 6.6266 2.21677 2.51224 2.1979C2.17988 2.12927 1.78617 2.34889 1.81005 2.72465C1.80664 3.29601 1.68902 3.92569 2.0282 4.42842C2.17477 4.43185 2.46963 4.437 2.6162 4.43871C2.6162 5.16792 2.6162 5.89714 2.61451 6.62635C2.13046 6.6212 1.64471 6.64179 1.16238 6.59889C0.564145 6.50111 0.040898 5.95375 0.0170353 5.33435C-0.0221641 4.25 0.0221476 3.16389 0 2.0778C0.00850943 1.55963 -0.0545527 0.969415 0.315311 0.550757C0.637416 0.125226 1.19305 0.025716 1.69413 0.0136964ZM3.15139 2.8602C6.71694 2.86362 10.2825 2.86362 13.848 2.8602C13.8395 7.57347 13.8532 12.2867 13.8412 17H3.16162C3.14287 12.2867 3.16162 7.57348 3.15139 2.8602ZM6.12382 4.99119C5.24776 5.63291 4.73134 6.64864 4.54727 7.70729C4.54727 8.00755 4.54727 8.30953 4.55068 8.6098C4.76032 9.98757 5.64488 11.2675 6.94874 11.796C8.36678 12.4343 10.1461 12.1049 11.2438 10.9982C12.1266 10.1677 12.5476 8.90835 12.4522 7.70729C12.2732 6.77561 11.8829 5.85423 11.15 5.22455C9.81891 3.94629 7.57084 3.8502 6.12382 4.99119ZM9.16784 6.68125C9.39792 6.60405 9.63823 6.56114 9.86833 6.48221C10.5927 6.61262 11.2063 7.20971 11.1858 7.98353L11.6818 8.01098C11.6682 8.29409 11.5011 8.41075 11.179 8.36101C11.1722 9.10566 10.5825 9.82286 9.79844 9.75251C9.68426 9.30812 9.96889 9.08507 10.3524 8.98555C10.5126 8.79853 10.6404 8.58405 10.695 8.34041C10.1206 8.32326 9.54449 8.3267 8.96843 8.33699C8.83206 8.80368 8.71618 9.32357 8.32417 9.64785C7.99522 9.96356 7.50777 9.84688 7.09871 9.85718C6.45105 9.63754 6.06076 9.0233 6.04031 8.34899C5.8034 8.33699 5.56479 8.32497 5.32788 8.31126L5.36538 7.98869C5.58352 7.99211 5.80338 7.99211 6.02156 7.98869C6.02326 7.08274 6.7851 6.30034 7.71399 6.43246C7.73444 6.71213 7.73444 7.1222 7.34415 7.10505C6.87715 7.11535 6.57548 7.55974 6.52434 7.99211C7.15155 7.98869 7.77706 7.98011 8.40257 7.99898C8.54744 7.51169 8.69401 6.95235 9.16784 6.68125ZM9.03147 7.98696C9.5922 7.99211 10.1512 7.99211 10.7103 7.98182C10.6455 7.47223 10.1666 7.02955 9.63993 7.14795C9.31609 7.31438 9.12179 7.6421 9.03147 7.98696ZM6.50218 8.33699C6.55841 8.81397 6.93678 9.3167 7.46345 9.23779C7.9952 9.30811 8.19803 8.73161 8.39063 8.34899C7.7617 8.32155 7.13108 8.32497 6.50218 8.33699Z" fill="url(#paint0_linear_14520_37653)"/>
<defs>
<linearGradient id="paint0_linear_14520_37653" x1="8.5" y1="0" x2="8.5" y2="17" gradientUnits="userSpaceOnUse">
<stop stop-color="#F8C53D"/>
<stop offset="1" stop-color="#FEF17A"/>
</linearGradient>
</defs>
</svg>
