<svg width="390" height="65" viewBox="0 0 390 65" preserveAspectRatio="none" fill="none" xmlns="http://www.w3.org/2000/svg">
<mask id="path-1-outside-1_15134_21630" maskUnits="userSpaceOnUse" x="-1" y="-0.5" width="392" height="66" fill="black">
<rect fill="white" x="-1" y="-0.5" width="392" height="66"/>
<path d="M137.746 0.5C142.012 0.5 151.1 2.51509 153.326 10.5752C156.109 20.6503 159.558 34.4199 187.948 34.4199H202.155C230.545 34.4199 233.994 20.6503 236.777 10.5752C239.004 2.51509 248.092 0.5 252.357 0.5H390.104V64.5508H0V0.5H137.746Z"/>
</mask>
<path d="M137.746 0.5C142.012 0.5 151.1 2.51509 153.326 10.5752C156.109 20.6503 159.558 34.4199 187.948 34.4199H202.155C230.545 34.4199 233.994 20.6503 236.777 10.5752C239.004 2.51509 248.092 0.5 252.357 0.5H390.104V64.5508H0V0.5H137.746Z" fill="white"/>
<path d="M153.326 10.5752L153.808 10.4421V10.4421L153.326 10.5752ZM236.777 10.5752L236.295 10.4421V10.4421L236.777 10.5752ZM390.104 0.5H390.604V0H390.104V0.5ZM390.104 64.5508V65.0508H390.604V64.5508H390.104ZM0 64.5508H-0.5V65.0508H0V64.5508ZM0 0.5V0H-0.5V0.5H0ZM137.746 0.5V1C139.816 1 143.077 1.49185 146.081 2.96403C149.076 4.43207 151.78 6.85416 152.844 10.7083L153.326 10.5752L153.808 10.4421C152.646 6.23612 149.693 3.62061 146.521 2.06608C143.358 0.515697 139.942 0 137.746 0V0.5ZM153.326 10.5752L152.844 10.7083C154.23 15.7266 155.815 21.8215 160.683 26.6314C165.568 31.4576 173.676 34.9199 187.948 34.9199V34.4199V33.9199C173.831 33.9199 166.019 30.4974 161.386 25.92C156.737 21.3264 155.205 15.4989 153.808 10.4421L153.326 10.5752ZM187.948 34.4199V34.9199H202.155V34.4199V33.9199H187.948V34.4199ZM202.155 34.4199V34.9199C216.428 34.9199 224.535 31.4576 229.42 26.6314C234.289 21.8215 235.873 15.7266 237.259 10.7083L236.777 10.5752L236.295 10.4421C234.899 15.4989 233.367 21.3264 228.717 25.92C224.084 30.4974 216.272 33.9199 202.155 33.9199V34.4199ZM236.777 10.5752L237.259 10.7083C238.324 6.85416 241.027 4.43207 244.023 2.96403C247.026 1.49185 250.287 1 252.357 1V0.5V0C250.162 0 246.746 0.515697 243.583 2.06608C240.411 3.62061 237.457 6.23612 236.295 10.4421L236.777 10.5752ZM252.357 0.5V1H390.104V0.5V0H252.357V0.5ZM390.104 0.5H389.604V64.5508H390.104H390.604V0.5H390.104ZM390.104 64.5508V64.0508H0V64.5508V65.0508H390.104V64.5508ZM0 64.5508H0.5V0.5H0H-0.5V64.5508H0ZM0 0.5V1H137.746V0.5V0H0V0.5Z" fill="url(#paint0_linear_15134_21630)" mask="url(#path-1-outside-1_15134_21630)"/>
<defs>
<linearGradient id="paint0_linear_15134_21630" x1="0" y1="32.5254" x2="390.104" y2="32.5254" gradientUnits="userSpaceOnUse">
<stop stop-color="#F5C84C" stop-opacity="0"/>
<stop offset="0.5" stop-color="#7EFFA5"/>
<stop offset="1" stop-color="#F5C84C" stop-opacity="0"/>
</linearGradient>
</defs>
</svg>
