<svg width="32" height="32" viewBox="0 0 32 32" fill="none" xmlns="http://www.w3.org/2000/svg">
<path d="M12.2592 7.79047L13.2463 3.18394C13.3779 2.56979 14.0364 2.22758 14.6146 2.47288L25.4729 7.07942C26.4759 7.50492 26.1719 9 25.0824 9H13.237C12.6003 9 12.1258 8.41298 12.2592 7.79047Z" fill="currentColor"/>
<path d="M28 10C29.1046 10 30 10.8954 30 12V26C29.9999 28.2091 28.2091 30 26 30H4C2.89546 30 2.00005 29.1045 2 28V12C2 10.8954 2.89543 10 4 10H28ZM7.1543 13C6.32587 13 5.6543 13.6716 5.6543 14.5C5.6543 15.3284 6.32587 16 7.1543 16H16.1543C16.9827 16 17.6543 15.3284 17.6543 14.5C17.6543 13.6716 16.9827 13 16.1543 13H7.1543Z" fill="currentColor"/>
</svg>
