<svg width="32" height="32" viewBox="0 0 32 32" fill="none" xmlns="http://www.w3.org/2000/svg">
<path d="M16 4C23.1797 4 29 9.8203 29 17C29 24.1797 23.1797 30 16 30C8.8203 30 3 24.1797 3 17C3 9.8203 8.8203 4 16 4ZM16.8779 11.6094C16.4989 10.9149 15.5011 10.9149 15.1221 11.6094L14.0469 13.582C13.903 13.8457 13.6478 14.0306 13.3525 14.0859L11.1445 14.499C10.3667 14.6449 10.0589 15.5938 10.6025 16.1689L12.1455 17.8018C12.3518 18.02 12.4488 18.3194 12.4102 18.6172L12.1211 20.8447C12.0193 21.6297 12.8269 22.2164 13.542 21.877L15.5713 20.9131C15.8425 20.7844 16.1575 20.7844 16.4287 20.9131L18.458 21.877C19.1731 22.2164 19.9807 21.6297 19.8789 20.8447L19.5898 18.6172C19.5512 18.3194 19.6482 18.02 19.8545 17.8018L21.3975 16.1689C21.9411 15.5938 21.6333 14.6449 20.8555 14.499L18.6475 14.0859C18.3522 14.0306 18.097 13.8457 17.9531 13.582L16.8779 11.6094Z" fill="currentColor" fill-opacity="0.4"/>
<path d="M12.6842 2L14 3.56522L11.367 4.32077C9.80829 4.76806 8.36775 5.55443 7.14852 6.6236L5.57895 8L4.42312 4.75362C4.16488 4.02833 4.34912 3.21913 4.89589 2.67712C5.33345 2.24336 5.92463 2 6.54075 2H12.6842Z" fill="currentColor" fill-opacity="0.4"/>
<path d="M19.3158 2L18 3.56522L20.633 4.32077C22.1917 4.76806 23.6322 5.55443 24.8515 6.6236L26.4211 8L27.5769 4.75362C27.8351 4.02833 27.6509 3.21913 27.1041 2.67712C26.6666 2.24336 26.0754 2 25.4593 2H19.3158Z" fill="currentColor" fill-opacity="0.4"/>
</svg>
