<svg width="24" height="24" viewBox="0 0 24 24" fill="none" xmlns="http://www.w3.org/2000/svg">
<path d="M11.3975 22.0012H5.10547C4.00127 22.001 3.10578 21.1054 3.10547 20.0012V13.2795C3.10574 12.1753 4.00124 11.2798 5.10547 11.2795H11.3975V22.0012ZM18.5273 11.2795C19.6316 11.2797 20.5271 12.1753 20.5273 13.2795V20.0012C20.527 21.1054 19.6316 22.0011 18.5273 22.0012H12.5029V11.2795H18.5273ZM11.3975 10.3606H4.68066C3.20036 10.3606 2 9.16023 2 7.67993C2.00029 6.19987 3.20054 4.99927 4.68066 4.99927H11.3975V10.3606ZM19.4209 4.99927C20.901 4.99927 22.1013 6.19987 22.1016 7.67993C22.1016 9.16023 20.9012 10.3606 19.4209 10.3606H12.5029V4.99927H19.4209ZM4.68066 4.57935C4.68097 2.5479 6.92373 1.31596 8.6377 2.40649L12.0508 4.57935H4.68066ZM15.4648 2.40649C17.1788 1.31636 19.4216 2.54804 19.4219 4.57935H12.0508L15.4648 2.40649Z" fill="black" fill-opacity="0.2"/>
</svg>
