<svg width="200" height="200" viewBox="0 0 200 200" fill="none" xmlns="http://www.w3.org/2000/svg">
<path d="M100.332 19.2777C110.78 19.2777 120.962 21.2575 130.596 25.1641C140.566 29.2121 149.529 35.1515 157.201 42.8409C164.873 50.5126 170.831 59.4747 174.879 69.4444C178.785 79.0782 180.765 89.2601 180.765 99.707C180.765 110.154 178.785 120.336 174.879 129.97C170.831 139.939 164.891 148.901 157.201 156.573C149.529 164.245 140.566 170.202 130.596 174.25C120.962 178.157 110.78 180.136 100.332 180.136C89.8845 180.136 79.7022 178.157 70.0679 174.25C60.0977 170.202 51.1351 164.263 43.463 156.573C35.7909 148.901 29.8335 139.939 25.7853 129.97C21.8963 120.336 19.8987 110.154 19.8987 99.707C19.8987 89.2601 21.8786 79.0782 25.7853 69.4444C29.8335 59.4747 35.7732 50.5126 43.463 42.8409C51.1351 35.1692 60.0977 29.2121 70.0679 25.1641C79.7022 21.2575 89.8845 19.2777 100.332 19.2777ZM100.332 12.207C77.9344 12.207 55.5368 20.7449 38.4602 37.8383C4.2893 72.0075 4.2893 127.407 38.4602 161.576C55.5545 178.669 77.9344 187.207 100.332 187.207C122.73 187.207 145.127 178.669 162.204 161.576C196.375 127.407 196.375 72.0075 162.204 37.8383C145.127 20.7449 122.73 12.207 100.332 12.207Z" fill="#0088FF"/>
<path d="M52.832 100.207C52.832 102.594 53.8329 104.883 55.6145 106.571C57.3961 108.259 59.8125 109.207 62.332 109.207C64.8516 109.207 67.2679 108.259 69.0495 106.571C70.8311 104.883 71.832 102.594 71.832 100.207C71.832 97.8201 70.8311 95.5309 69.0495 93.8431C67.2679 92.1552 64.8516 91.207 62.332 91.207C59.8125 91.207 57.3961 92.1552 55.6145 93.8431C53.8329 95.5309 52.832 97.8201 52.832 100.207Z" fill="#0088FF"/>
<path d="M90.832 100.207C90.832 102.594 91.7802 104.883 93.4681 106.571C95.1559 108.259 97.4451 109.207 99.832 109.207C102.219 109.207 104.508 108.259 106.196 106.571C107.884 104.883 108.832 102.594 108.832 100.207C108.832 97.8201 107.884 95.5309 106.196 93.8431C104.508 92.1552 102.219 91.207 99.832 91.207C97.4451 91.207 95.1559 92.1552 93.4681 93.8431C91.7802 95.5309 90.832 97.8201 90.832 100.207Z" fill="#0088FF"/>
<path d="M128.832 100.207C128.832 102.594 129.728 104.883 131.322 106.571C132.916 108.259 135.078 109.207 137.332 109.207C139.586 109.207 141.748 108.259 143.342 106.571C144.937 104.883 145.832 102.594 145.832 100.207C145.832 97.8201 144.937 95.5309 143.342 93.8431C141.748 92.1552 139.586 91.207 137.332 91.207C135.078 91.207 132.916 92.1552 131.322 93.8431C129.728 95.5309 128.832 97.8201 128.832 100.207Z" fill="#0088FF"/>
</svg>
