<svg width="32" height="32" viewBox="0 0 32 32" fill="none" xmlns="http://www.w3.org/2000/svg">
<path d="M16 2C23.732 2 30 8.26801 30 16C30 23.732 23.732 30 16 30C8.26801 30 2 23.732 2 16C2 8.26801 8.26801 2 16 2ZM16 18.2061C12.7258 18.2061 9.84707 19.8971 8.16504 22.4502C7.86137 22.9114 7.98907 23.5312 8.4502 23.835C8.91137 24.1386 9.53116 24.0109 9.83496 23.5498C11.1665 21.5288 13.4332 20.2061 16 20.2061C18.5668 20.2061 20.8335 21.5288 22.165 23.5498C22.4688 24.0109 23.0886 24.1386 23.5498 23.835C24.0109 23.5312 24.1386 22.9114 23.835 22.4502C22.1529 19.897 19.2742 18.2061 16 18.2061ZM16 8C13.3476 8.00004 11.2169 10.1722 11.2168 12.8271C11.2168 15.4821 13.3476 17.6543 16 17.6543C18.6523 17.6541 20.7822 15.482 20.7822 12.8271C20.7822 10.1723 18.6523 8.00017 16 8ZM16 10C17.5258 10.0002 18.7822 11.2548 18.7822 12.8271C18.7822 14.3995 17.5259 15.6541 16 15.6543C14.474 15.6543 13.2168 14.3996 13.2168 12.8271C13.2169 11.2547 14.4741 10 16 10Z" fill="currentColor"/>
</svg>
