<svg width="24" height="24" viewBox="0 0 24 24" fill="none" xmlns="http://www.w3.org/2000/svg">
<path d="M11.3975 22.0012H5.10547C4.00125 22.001 3.10575 21.1054 3.10547 20.0012V13.2795C3.1057 12.1753 4.00122 11.2798 5.10547 11.2795H11.3975V22.0012ZM18.5273 11.2795C19.6316 11.2797 20.5271 12.1753 20.5273 13.2795V20.0012C20.5271 21.1055 19.6316 22.0011 18.5273 22.0012H12.5029V11.2795H18.5273ZM11.3975 10.3606H4.68066C3.20051 10.3606 2.00024 9.161 2 7.68091C2 6.20061 3.20036 5.00024 4.68066 5.00024H11.3975V10.3606ZM19.4209 5.00024C20.9012 5.00024 22.1016 6.20061 22.1016 7.68091C22.1013 9.161 20.9011 10.3606 19.4209 10.3606H12.5029V5.00024H19.4209ZM4.68066 4.57935C4.68069 2.54759 6.9236 1.31663 8.6377 2.40747L12.0508 4.57935H4.68066ZM15.4648 2.40747C17.1789 1.31687 19.4219 2.54768 19.4219 4.57935H12.0508L15.4648 2.40747Z" fill="#24B978"/>
</svg>
