<svg xmlns="http://www.w3.org/2000/svg" width="10" height="12" viewBox="0 0 10 12" fill="none">
  <path d="M8.74395 3.02446C8.03443 1.89455 7.12084 0.925633 6.32075 0.126941C6.27159 0.0778522 6.21138 0.0412766 6.14516 0.0202876C6.07894 -0.000701413 6.00865 -0.00549075 5.9402 0.00632204C5.87174 0.0181348 5.80712 0.0462046 5.75177 0.0881731C5.69641 0.130141 5.65194 0.184783 5.62208 0.247506L3.94791 3.76326L2.19639 2.59557C2.14888 2.56389 2.0956 2.5419 2.03958 2.53085C1.98356 2.5198 1.92592 2.51991 1.86994 2.53118C1.81397 2.54244 1.76076 2.56464 1.71338 2.59649C1.666 2.62835 1.62536 2.66924 1.59381 2.71682C0.536233 4.31108 0 5.75466 0 7.00742C0 8.33154 0.526002 9.60142 1.46229 10.5377C2.39858 11.474 3.66846 12 4.99258 12C6.31669 12 7.58657 11.474 8.52286 10.5377C9.45915 9.60142 9.98516 8.33154 9.98516 7.00742C9.98516 5.65737 9.57916 4.35453 8.74395 3.02446ZM8.21032 7.5078C8.10668 8.19144 7.78702 8.82398 7.2981 9.31292C6.80918 9.80185 6.17665 10.1215 5.49301 10.2252C5.47091 10.2286 5.44858 10.2303 5.42621 10.2303C5.31687 10.2302 5.2116 10.1888 5.13145 10.1144C5.0513 10.04 5.00217 9.93816 4.99387 9.82913C4.98556 9.7201 5.0187 9.61196 5.08667 9.5263C5.15463 9.44065 5.25241 9.38379 5.36047 9.36709C5.85971 9.28664 6.32088 9.05088 6.67845 8.69331C7.03602 8.33573 7.27177 7.87455 7.35222 7.37532C7.36092 7.31897 7.38063 7.26489 7.41023 7.21617C7.43983 7.16744 7.47873 7.12502 7.52472 7.09133C7.57072 7.05764 7.62289 7.03334 7.67828 7.01982C7.73366 7.00629 7.79117 7.00381 7.84751 7.01251C7.90385 7.02121 7.95793 7.04092 8.00666 7.07052C8.05538 7.10012 8.0978 7.13902 8.13149 7.18502C8.16518 7.23101 8.18948 7.28319 8.20301 7.33857C8.21653 7.39395 8.21902 7.45146 8.21032 7.5078H8.21032Z" fill="currentColor"/>
</svg>