<svg xmlns="http://www.w3.org/2000/svg" width="19" height="18" viewBox="0 0 19 18" fill="none">
  <path d="M17.0848 10.3086H16.4448C16.3338 10.3086 16.2824 10.289 16.2642 10.2796C16.1849 9.86778 15.9828 9.26099 15.4717 8.67029C14.9994 8.12428 14.3685 7.71266 13.5941 7.44448C13.6124 6.77323 13.801 6.22867 14.2076 5.28804C14.2519 5.18543 14.2263 5.0703 14.1411 4.98881C14.0558 4.90739 13.9249 4.87311 13.8012 4.89976C12.4634 5.18769 11.5217 5.7998 10.9307 6.76761C10.2329 6.6392 9.50682 6.5742 8.76821 6.5742C6.7068 6.5742 4.97314 7.06229 3.46807 8.06632C2.81298 8.50354 2.31034 9.07108 1.97408 9.75298C1.93888 9.82425 1.90579 9.89674 1.87442 9.97017C1.74891 9.93345 1.54342 9.86193 1.34267 9.74243C0.953649 9.51059 0.756372 9.20358 0.756372 8.82988C0.756372 8.44833 0.972676 8.13155 1.32083 8.00295C1.49529 7.93859 1.57582 7.76521 1.5006 7.61563C1.42548 7.46608 1.22298 7.39709 1.04855 7.46157C0.453123 7.68141 0.0683594 8.21843 0.0683594 8.82988C0.0683594 9.40759 0.38072 9.89495 0.971627 10.2392C1.24135 10.3965 1.51154 10.4883 1.67762 10.5354C1.53538 11.0517 1.47812 11.6102 1.50726 12.2046C1.58265 13.749 2.87924 14.8609 3.64702 15.3872C3.6559 15.3931 3.66514 15.3993 3.67489 15.4058C3.78763 15.4803 3.81445 15.498 3.77037 15.6147C3.64914 15.9346 3.42699 16.3913 3.42467 16.3958C3.42337 16.3986 3.42199 16.4015 3.42074 16.4044C3.32373 16.6223 3.3319 16.8597 3.44361 17.073C3.5554 17.2867 3.75733 17.4498 4.01238 17.5328L5.27781 17.9429C5.39405 17.9808 5.51569 18 5.63952 18C6.06093 18 6.44467 17.7733 6.59384 17.4369C6.59554 17.4332 6.76427 17.0565 6.89982 16.7465C6.92312 16.694 6.94063 16.6624 6.95239 16.6438C7.00974 16.6481 7.1015 16.6646 7.20531 16.6832C7.52154 16.74 7.99925 16.8256 8.76818 16.8256C9.46243 16.8256 9.93346 16.7824 10.2452 16.7539C10.3964 16.7401 10.5158 16.7292 10.5953 16.7292C10.6089 16.7292 10.6197 16.7295 10.6281 16.73C10.6357 16.7434 10.6465 16.7653 10.6602 16.7999C10.7792 17.1033 10.9224 17.3975 10.9437 17.4411C11.0941 17.7756 11.4757 18 11.896 18C12.0198 18 12.1416 17.9808 12.2579 17.943L13.5222 17.5328C13.7779 17.45 13.9804 17.2865 14.0924 17.0726C14.2042 16.8593 14.2121 16.6219 14.1154 16.4053L13.9126 15.9452C13.9058 15.9298 13.8975 15.9148 13.8878 15.9006C13.8878 15.9006 13.887 15.8765 13.8876 15.8746C13.8916 15.8626 13.9177 15.8331 13.9911 15.7989C14.9112 15.37 15.6457 14.7 16.1157 13.8605C16.2051 13.6996 16.2566 13.6388 16.4448 13.6388H17.085C17.6272 13.6388 18.0684 13.261 18.0684 12.7968V11.1519C18.0683 10.6869 17.6271 10.3086 17.0848 10.3086ZM13.5853 11.5786C13.1687 11.5786 12.8315 11.2663 12.8315 10.8815C12.8315 10.4971 13.1687 10.1852 13.5853 10.1852C14.0007 10.1852 14.3369 10.4971 14.3369 10.8815C14.3369 11.2664 14.0007 11.5786 13.5853 11.5786ZM9.99107 5.51669C10.2316 5.01361 10.3665 4.45031 10.3665 3.85547C10.3665 1.72615 8.64029 0 6.51092 0C4.38154 0 2.65534 1.72615 2.65534 3.85547C2.65534 4.89326 3.06551 5.83516 3.7324 6.52823C4.71479 5.96849 6.75361 5.16346 9.99107 5.51669ZM7.5902 4.93523H5.43164V2.77572H7.5902V4.93523Z" fill="currentColor"/>
</svg>