<svg width="30" height="30" viewBox="0 0 30 30" fill="none" xmlns="http://www.w3.org/2000/svg">
<path fill-rule="evenodd" clip-rule="evenodd" d="M14.4356 12.8353C14.8261 13.2258 15.4593 13.2258 15.8498 12.8353L20.8356 7.84953C21.2261 7.45901 21.8593 7.45901 22.2498 7.84953L22.4356 8.03532C22.8261 8.42584 22.8261 9.05901 22.4356 9.44953L17.4498 14.4353C17.0593 14.8258 17.0593 15.459 17.4498 15.8495L22.4356 20.8353C22.8261 21.2258 22.8261 21.859 22.4356 22.2495L22.2498 22.4353C21.8593 22.8258 21.2261 22.8258 20.8356 22.4353L15.8498 17.4495C15.4593 17.059 14.8261 17.059 14.4356 17.4495L9.44978 22.4353C9.05925 22.8258 8.42609 22.8258 8.03556 22.4353L7.84978 22.2495C7.45925 21.859 7.45925 21.2258 7.84978 20.8353L12.8356 15.8495C13.2261 15.459 13.2261 14.8258 12.8356 14.4353L7.84978 9.44953C7.45925 9.05901 7.45925 8.42584 7.84978 8.03532L8.03556 7.84953C8.42609 7.45901 9.05925 7.45901 9.44978 7.84953L14.4356 12.8353Z" fill="white"/>
</svg>
