<svg width="32" height="32" viewBox="0 0 32 32" fill="none" xmlns="http://www.w3.org/2000/svg">
<path d="M12.4092 28.8002C12.4092 28.8002 1.33316 26.3031 6.28347 13.9088C6.28347 13.9088 7.40737 15.2859 7.25295 15.9488C7.25295 15.9488 8.13376 12.8202 10.0355 10.9516C11.6685 9.34591 13.3272 4.83162 11.7972 3.2002C11.7972 3.2002 19.3756 4.83162 20.2193 12.9916C20.2193 12.9916 21.1888 10.3916 23.1792 10.1345C23.1792 10.1345 22.5672 11.5631 23.1792 13.7059C23.1792 13.7059 29.4564 24.7202 18.6378 28.4431C18.6378 28.4431 21.8808 24.6688 15.003 18.1916C15.003 18.1916 13.3815 21.6602 12.412 22.8831C12.4092 22.8859 9.7038 25.9945 12.4092 28.8002Z" fill="url(#paint0_linear_14757_34147)"/>
<defs>
<linearGradient id="paint0_linear_14757_34147" x1="10.6293" y1="27.5514" x2="22.4927" y2="4.44897" gradientUnits="userSpaceOnUse">
<stop stop-color="#FF102B"/>
<stop offset="1" stop-color="#FFD417"/>
</linearGradient>
</defs>
</svg>
