<svg width="24" height="24" viewBox="0 0 24 24" fill="none" xmlns="http://www.w3.org/2000/svg">
<path fill-rule="evenodd" clip-rule="evenodd" d="M5.7 8.36366C5.7 4.84911 8.52061 2 12 2H18.3V8.36366C18.3 11.8782 15.4794 14.7273 12 14.7273C8.52061 14.7273 5.7 11.8782 5.7 8.36366ZM12.244 12.4029C10.8528 12.4029 9.67748 11.4663 9.3 10.1819H10.5366C10.8549 10.8084 11.5002 11.2369 12.244 11.2369C12.9878 11.2369 13.6331 10.8084 13.9519 10.1819H15.188C14.8105 11.4663 13.6352 12.4029 12.244 12.4029Z" fill="black" fill-opacity="0.2"/>
<path d="M8.19668 14.54C5.12704 15.7706 3 18.4448 3 21.5455C3 21.698 3.00515 21.8496 3.01531 22H20.9847C20.9948 21.8496 21 21.698 21 21.5455C21 18.4448 18.873 15.7706 15.8033 14.54C14.6997 15.2349 13.3963 15.6363 12 15.6363C10.6037 15.6363 9.30032 15.2349 8.19668 14.54Z" fill="black" fill-opacity="0.2"/>
</svg>
