<svg width="200" height="200" viewBox="0 0 200 200" fill="none" xmlns="http://www.w3.org/2000/svg">
<g clip-path="url(#clip0_3902_2299)">
<path d="M53.5156 187.208C45.9961 187.208 40.2995 185.299 36.4258 181.482C32.609 177.666 30.7007 171.998 30.7007 164.478V83.5576C30.7007 76.0381 32.609 70.37 36.4258 66.5532C40.2995 62.7365 45.9961 60.8281 53.5156 60.8281H83.5083V68.9458H53.6865C48.8444 68.9458 45.1416 70.2275 42.5781 72.791C40.0716 75.2975 38.8184 79.0288 38.8184 83.9849V164.051C38.8184 169.007 40.0716 172.738 42.5781 175.245C45.1416 177.808 48.8444 179.09 53.6865 179.09H146.313C151.042 179.09 154.716 177.808 157.336 175.245C159.957 172.738 161.267 169.007 161.267 164.051V83.9849C161.267 79.0288 159.957 75.2975 157.336 72.791C154.716 70.2275 151.042 68.9458 146.313 68.9458H116.492V60.8281H146.484C154.061 60.8281 159.757 62.765 163.574 66.6387C167.448 70.5124 169.385 76.152 169.385 83.5576V164.478C169.385 171.941 167.448 177.58 163.574 181.397C159.757 185.271 154.061 187.208 146.484 187.208H53.5156ZM100 125.855C98.9176 125.855 97.9777 125.456 97.1802 124.659C96.3826 123.861 95.9839 122.921 95.9839 121.839V35.1934L96.2402 23.5723L90.686 29.2974L75.3906 45.1055C74.5931 45.96 73.6247 46.3872 72.4854 46.3872C71.46 46.3872 70.577 46.0454 69.8364 45.3618C69.1528 44.6213 68.811 43.7383 68.811 42.7129C68.811 41.7445 69.2383 40.8615 70.0928 40.064L97.0947 13.4038C97.6074 12.9481 98.0916 12.6348 98.5474 12.4639C99.0031 12.236 99.4873 12.1221 100 12.1221C100.513 12.1221 100.997 12.236 101.453 12.4639C101.965 12.6348 102.45 12.9481 102.905 13.4038L129.907 40.064C130.705 40.8615 131.104 41.7445 131.104 42.7129C131.104 43.7383 130.733 44.6213 129.993 45.3618C129.309 46.0454 128.455 46.3872 127.429 46.3872C126.347 46.3872 125.407 45.96 124.609 45.1055L109.314 29.2974L103.76 23.7432L104.102 35.1934V121.839C104.102 122.921 103.674 123.861 102.82 124.659C102.022 125.456 101.082 125.855 100 125.855Z" fill="#0088FF"/>
</g>
<defs>
<clipPath id="clip0_3902_2299">
<rect width="200" height="200" fill="white"/>
</clipPath>
</defs>
</svg>
