<svg width="266" height="266" viewBox="0 0 266 266" fill="none" xmlns="http://www.w3.org/2000/svg">
<g clip-path="url(#clip0_2920_4829)">
<ellipse cx="133" cy="133" rx="133" ry="133" fill="#174392"/>
<path d="M82.1031 10.124C98.2394 3.44013 115.534 -8.53661e-06 133 0C150.466 8.53664e-06 167.761 3.44017 183.897 10.1241L133 133L82.1031 10.124Z" fill="#113B86"/>
<path d="M255.876 82.1031C262.56 98.2394 266 115.534 266 133C266 150.466 262.56 167.761 255.876 183.897L133 133L255.876 82.1031Z" fill="#113B86"/>
<path d="M82.1031 255.876C98.2394 262.56 115.534 266 133 266C150.466 266 167.761 262.56 183.897 255.876L133 133L82.1031 255.876Z" fill="#113B86"/>
<path d="M10.124 82.1031C3.44012 98.2394 -1.35868e-05 115.534 -5.8136e-06 133C1.95957e-06 150.466 3.44016 167.761 10.124 183.897L133 133L10.124 82.1031Z" fill="#113B86"/>
</g>
<defs>
<clipPath id="clip0_2920_4829">
<rect width="266" height="266" fill="white"/>
</clipPath>
</defs>
</svg>
