<svg xmlns="http://www.w3.org/2000/svg" width="24" height="25" viewBox="0 0 24 25" fill="none">
<path d="M20.5092 10.3915L13.0086 3.57252C12.733 3.32025 12.373 3.18033 11.9995 3.18036C11.6259 3.18038 11.2659 3.32035 10.9905 3.57266L3.4911 10.3915C3.33659 10.5322 3.21313 10.7035 3.12858 10.8946C3.04404 11.0857 3.00028 11.2924 3.0001 11.5014V20.1353C2.9958 20.5122 3.12953 20.8778 3.3761 21.1629C3.51657 21.3226 3.68954 21.4504 3.88342 21.5378C4.07731 21.6251 4.28763 21.6701 4.50029 21.6695H8.9968C9.19572 21.6695 9.38648 21.5905 9.52713 21.4498C9.66779 21.3092 9.7468 21.1184 9.7468 20.9195V16.4188C9.7468 16.2199 9.82582 16.0292 9.96647 15.8885C10.1071 15.7478 10.2979 15.6688 10.4968 15.6688H13.4968C13.6957 15.6688 13.8865 15.7478 14.0271 15.8885C14.1678 16.0292 14.2468 16.2199 14.2468 16.4188V20.9195C14.2468 21.1184 14.3258 21.3092 14.4665 21.4498C14.6071 21.5905 14.7979 21.6695 14.9968 21.6695H19.5022C19.7486 21.6727 19.9918 21.6128 20.2085 21.4955C20.4477 21.3664 20.6476 21.175 20.7869 20.9416C20.9263 20.7081 20.9999 20.4414 21.0001 20.1695V11.5014C20.9999 11.2924 20.9561 11.0858 20.8716 10.8947C20.7871 10.7036 20.6637 10.5322 20.5092 10.3915Z" fill="white"/>
</svg>