<svg viewBox="0 0 20 19" fill="none" xmlns="http://www.w3.org/2000/svg">
<path fill-rule="evenodd" clip-rule="evenodd" d="M0 1.72217C0 1.16988 0.447715 0.722168 1 0.722168H19C19.5523 0.722168 20 1.16988 20 1.72217C20 2.27445 19.5523 2.72217 19 2.72217H1C0.447715 2.72217 0 2.27445 0 1.72217ZM0 17.2777C0 16.7254 0.447715 16.2777 1 16.2777H19C19.5523 16.2777 20 16.7254 20 17.2777C20 17.83 19.5523 18.2777 19 18.2777H1C0.447715 18.2777 0 17.83 0 17.2777ZM1 8.49995C0.447715 8.49995 0 8.94766 0 9.49995C0 10.0522 0.447715 10.4999 1 10.4999H19C19.5523 10.4999 20 10.0522 20 9.49995C20 8.94766 19.5523 8.49995 19 8.49995H1Z" fill="currentColor"/>
</svg>
