<svg width="31" height="30" viewBox="0 0 31 30" fill="none" xmlns="http://www.w3.org/2000/svg">
<path fill-rule="evenodd" clip-rule="evenodd" d="M24.172 10.8008H5.422V22.832C5.422 24.2127 6.54129 25.332 7.922 25.332H24.172C25.5527 25.332 26.672 24.2127 26.672 22.832V20.5371H22.4532C21.0617 20.5371 19.9337 19.4091 19.9337 18.0176C19.9337 16.6261 21.0617 15.498 22.4532 15.498H26.672V13.3008C26.672 11.9201 25.5527 10.8008 24.172 10.8008Z" fill="url(#paint0_linear_85_2006)"/>
<path d="M5.422 9.35547H19.172V8.08404C19.172 6.70333 18.0527 5.58404 16.672 5.58404H7.922C6.54129 5.58404 5.422 6.70333 5.422 8.08404V9.35547Z" fill="url(#paint1_linear_85_2006)"/>
<circle cx="22.5607" cy="18.0664" r="0.810547" fill="url(#paint2_linear_85_2006)"/>
<defs>
<linearGradient id="paint0_linear_85_2006" x1="26.672" y1="24.6414" x2="13.4399" y2="4.00126" gradientUnits="userSpaceOnUse">
<stop stop-color="#7041F3"/>
<stop offset="1" stop-color="#F5C84C"/>
</linearGradient>
<linearGradient id="paint1_linear_85_2006" x1="19.172" y1="5.76328" x2="17.3489" y2="12.8531" gradientUnits="userSpaceOnUse">
<stop stop-color="#7041F3"/>
<stop offset="1" stop-color="#F5C84C"/>
</linearGradient>
<linearGradient id="paint2_linear_85_2006" x1="23.3712" y1="18.7999" x2="21.7501" y2="17.0707" gradientUnits="userSpaceOnUse">
<stop stop-color="#7041F3"/>
<stop offset="1" stop-color="#F5C84C"/>
</linearGradient>
</defs>
</svg>
